<svg width="25" height="25" viewBox="0 0 25 25" fill="none" xmlns="http://www.w3.org/2000/svg">
<g clip-path="url(#clip0)">
<path d="M24.8675 18.2499C24.8372 18.1847 24.809 18.1306 24.7828 18.0872C24.349 17.306 23.5201 16.3471 22.2966 15.2103L22.2708 15.1843L22.2578 15.1715L22.2447 15.1585H22.2316C21.6763 14.6291 21.3247 14.2732 21.1774 14.0909C20.908 13.7438 20.8476 13.3925 20.9949 13.0364C21.0989 12.7674 21.4897 12.1994 22.1664 11.3315C22.5223 10.8715 22.8042 10.5029 23.0123 10.2251C24.5137 8.22917 25.1646 6.95373 24.9649 6.3983L24.8873 6.2685C24.8352 6.19036 24.7007 6.11887 24.4841 6.05368C24.2669 5.98862 23.9893 5.97786 23.6507 6.02122L19.9021 6.04711C19.8414 6.0256 19.7547 6.0276 19.6417 6.05368C19.5288 6.07976 19.4724 6.09284 19.4724 6.09284L19.4072 6.12544L19.3554 6.1646C19.312 6.1905 19.2642 6.23604 19.2121 6.30115C19.1603 6.36602 19.1169 6.44216 19.0823 6.52892C18.6742 7.57891 18.2101 8.55515 17.6894 9.45757C17.3683 9.99568 17.0734 10.462 16.8041 10.8569C16.5351 11.2516 16.3095 11.5424 16.1274 11.7288C15.9451 11.9155 15.7805 12.0649 15.6327 12.1779C15.4851 12.2908 15.3724 12.3386 15.2944 12.3211C15.2162 12.3037 15.1426 12.2863 15.0729 12.269C14.9515 12.1909 14.8538 12.0846 14.7802 11.9501C14.7063 11.8156 14.6565 11.6463 14.6305 11.4424C14.6046 11.2383 14.5892 11.0628 14.5849 10.9152C14.5808 10.7678 14.5827 10.5594 14.5915 10.2904C14.6005 10.0213 14.6046 9.83916 14.6046 9.7437C14.6046 9.41389 14.611 9.05596 14.6239 8.66981C14.637 8.28365 14.6476 7.9777 14.6565 7.7523C14.6654 7.52667 14.6695 7.28796 14.6695 7.03629C14.6695 6.78463 14.6542 6.58727 14.6239 6.44403C14.594 6.30096 14.5481 6.16209 14.4876 6.02746C14.4267 5.89297 14.3376 5.78893 14.2207 5.71508C14.1036 5.64131 13.958 5.58277 13.7847 5.53928C13.3247 5.4352 12.739 5.37889 12.0273 5.37014C10.4134 5.35281 9.37631 5.45703 8.91639 5.68266C8.73417 5.77799 8.56927 5.90824 8.42183 6.07301C8.26559 6.26399 8.24379 6.36821 8.35659 6.38535C8.87732 6.46336 9.24597 6.64996 9.46293 6.94498L9.54112 7.10131C9.60194 7.2141 9.66267 7.41378 9.72344 7.70009C9.78412 7.9864 9.82328 8.30312 9.84052 8.65007C9.88383 9.28364 9.88383 9.82599 9.84052 10.2772C9.79707 10.7285 9.75604 11.0799 9.71687 11.3315C9.67771 11.5832 9.61917 11.7871 9.54112 11.9433C9.46293 12.0995 9.41092 12.1949 9.38484 12.2296C9.3588 12.2642 9.3371 12.2861 9.31987 12.2946C9.20708 12.3378 9.08977 12.3599 8.96837 12.3599C8.84678 12.3599 8.69934 12.2991 8.52582 12.1775C8.35235 12.056 8.17231 11.889 7.9857 11.6764C7.7991 11.4637 7.58866 11.1665 7.35427 10.7847C7.12008 10.4029 6.87708 9.95173 6.62542 9.43108L6.4172 9.0535C6.28704 8.81059 6.10924 8.4569 5.88361 7.99274C5.65785 7.5284 5.4583 7.07924 5.28482 6.64535C5.21548 6.46313 5.11131 6.3244 4.97248 6.22893L4.90733 6.18977C4.86402 6.15512 4.7945 6.11833 4.69912 6.07912C4.60361 6.03996 4.50395 6.01187 4.39973 5.99459L0.833215 6.02049C0.468763 6.02049 0.221479 6.10305 0.0912725 6.26795L0.0391624 6.34596C0.0131301 6.38941 0 6.4588 0 6.55431C0 6.64978 0.0260323 6.76694 0.0781424 6.90568C0.598788 8.12933 1.16498 9.30944 1.77671 10.4462C2.38845 11.583 2.92004 12.4986 3.37116 13.1924C3.82237 13.8867 4.28228 14.542 4.75091 15.158C5.21954 15.7741 5.52974 16.169 5.68151 16.3424C5.83346 16.5162 5.95282 16.6462 6.03958 16.7329L6.36505 17.0453C6.57331 17.2536 6.87913 17.503 7.28265 17.7937C7.68627 18.0845 8.1331 18.3708 8.62338 18.6531C9.11375 18.9349 9.68423 19.1648 10.3351 19.3427C10.9859 19.5207 11.6194 19.5921 12.2355 19.5577H13.7325C14.036 19.5315 14.266 19.436 14.4224 19.2712L14.4742 19.206C14.509 19.1542 14.5416 19.0737 14.5717 18.9655C14.6021 18.857 14.6173 18.7375 14.6173 18.6075C14.6084 18.2345 14.6368 17.8982 14.7017 17.5989C14.7666 17.2996 14.8405 17.074 14.9232 16.922C15.0059 16.7702 15.0992 16.6421 15.203 16.5383C15.307 16.4342 15.3811 16.3711 15.4246 16.3494C15.4679 16.3276 15.5024 16.3128 15.5284 16.3039C15.7367 16.2345 15.9818 16.3017 16.2641 16.5058C16.5461 16.7097 16.8107 16.9615 17.0582 17.2608C17.3055 17.5603 17.6026 17.8964 17.9497 18.2694C18.2969 18.6426 18.6006 18.92 18.8608 19.1025L19.121 19.2587C19.2948 19.363 19.5205 19.4584 19.7982 19.5452C20.0754 19.6319 20.3183 19.6536 20.5269 19.6102L23.859 19.5583C24.1886 19.5583 24.445 19.5037 24.6269 19.3954C24.8092 19.287 24.9175 19.1675 24.9524 19.0375C24.9872 18.9074 24.9891 18.7597 24.959 18.5947C24.9282 18.4301 24.8977 18.315 24.8675 18.2499Z" fill="white"/>
</g>
<defs>
<clipPath id="clip0">
<rect width="25" height="25" fill="white"/>
</clipPath>
</defs>
</svg>
