<svg width="22" height="22" viewBox="0 0 22 22" fill="none" xmlns="http://www.w3.org/2000/svg">
<path d="M21.5417 10.5417C21.7983 10.5417 22 10.7434 22 11C22 11.2567 21.7983 11.4583 21.5417 11.4583H21.0833V10.5417H21.5417Z" fill="black"/>
<path d="M11.4583 10.5417H21.0833V11.4583H11.4583V10.5417Z" fill="black"/>
<path d="M19.7083 22H11C11.2567 22 11.4583 21.7983 11.4583 21.5417V21.0833H19.7083C20.4692 21.0833 21.0833 20.4692 21.0833 19.7083V11.4583H21.5417C21.7983 11.4583 22 11.2567 22 11V19.7083C22 20.9733 20.9733 22 19.7083 22Z" fill="black"/>
<path d="M22 2.29167V11C22 10.7433 21.7983 10.5417 21.5417 10.5417H21.0833V2.29167C21.0833 1.53083 20.4692 0.916667 19.7083 0.916667H11.4583V0.458333C11.4583 0.201667 11.2567 0 11 0H19.7083C20.9733 0 22 1.02667 22 2.29167Z" fill="black"/>
<path d="M18.3333 5.5C18.59 5.5 18.7917 5.70167 18.7917 5.95834C18.7917 6.215 18.59 6.41667 18.3333 6.41667H14.6666C14.41 6.41667 14.2083 6.215 14.2083 5.95834C14.2083 5.70167 14.41 5.5 14.6666 5.5H18.3333Z" fill="black"/>
<path d="M18.3333 14.6666C18.59 14.6666 18.7917 14.8683 18.7917 15.125C18.7917 15.3816 18.59 15.5833 18.3333 15.5833H14.6666C14.41 15.5833 14.2083 15.3816 14.2083 15.125C14.2083 14.8683 14.41 14.6666 14.6666 14.6666H18.3333Z" fill="black"/>
<path d="M18.3333 17.4166C18.59 17.4166 18.7917 17.6183 18.7917 17.875C18.7917 18.1316 18.59 18.3333 18.3333 18.3333H14.6666C14.41 18.3333 14.2083 18.1316 14.2083 17.875C14.2083 17.6183 14.41 17.4166 14.6666 17.4166H18.3333Z" fill="black"/>
<path d="M11.4583 21.0833V21.5417C11.4583 21.7984 11.2567 22 11 22C10.7434 22 10.5417 21.7984 10.5417 21.5417V21.0833H11.4583Z" fill="black"/>
<path d="M10.5417 11.4584H11.4583V21.0834H10.5417V11.4584Z" fill="black"/>
<path d="M10.5417 10.5417H11.4583V11.4583H10.5417V10.5417Z" fill="black"/>
<path d="M10.5417 0.916687H11.4583V10.5417H10.5417V0.916687Z" fill="black"/>
<path d="M11.4583 0.458333V0.916667H10.5417V0.458333C10.5417 0.201667 10.7434 0 11 0C11.2567 0 11.4583 0.201667 11.4583 0.458333Z" fill="black"/>
<path d="M0.916687 10.5417H10.5417V11.4583H0.916687V10.5417Z" fill="black"/>
<path d="M7.33331 5.5C7.58998 5.5 7.79164 5.70167 7.79164 5.95834C7.79164 6.215 7.58998 6.41667 7.33331 6.41667H5.95831V5.5H7.33331Z" fill="black"/>
<path d="M7.19584 17.5542C7.37917 17.7283 7.37917 18.0217 7.19584 18.1958C7.11334 18.2875 6.99417 18.3333 6.87501 18.3333C6.75584 18.3333 6.63667 18.2875 6.55417 18.1958L5.5 17.1417L6.14167 16.5L7.19584 17.5542Z" fill="black"/>
<path d="M6.55417 14.8041C6.72834 14.6208 7.02167 14.6208 7.19584 14.8041C7.37917 14.9783 7.37917 15.2716 7.19584 15.4458L6.14167 16.5L5.5 15.8583L6.55417 14.8041Z" fill="black"/>
<path d="M4.85565 16.4991L5.49735 15.8574L6.13905 16.4991L5.49735 17.1408L4.85565 16.4991Z" fill="black"/>
<path d="M5.95836 6.41669V7.79168C5.95836 8.04835 5.75669 8.25002 5.50002 8.25002C5.24335 8.25002 5.04169 8.04835 5.04169 7.79168V6.41669H5.95836Z" fill="black"/>
<path d="M5.04169 5.5H5.95836V6.41667H5.04169V5.5Z" fill="black"/>
<path d="M5.95836 4.12502V5.50002H5.04169V4.12502C5.04169 3.86835 5.24335 3.66669 5.50002 3.66669C5.75669 3.66669 5.95836 3.86835 5.95836 4.12502Z" fill="black"/>
<path d="M5.50002 15.8583L4.85835 16.5L3.80419 15.4458C3.62085 15.2716 3.62085 14.9783 3.80419 14.8041C3.97835 14.6208 4.27169 14.6208 4.44585 14.8041L5.50002 15.8583Z" fill="black"/>
<path d="M5.04164 5.5V6.41667H3.66665C3.40998 6.41667 3.20831 6.215 3.20831 5.95834C3.20831 5.70167 3.40998 5.5 3.66665 5.5H5.04164Z" fill="black"/>
<path d="M4.44585 18.1958C4.36335 18.2875 4.24419 18.3333 4.12502 18.3333C4.00585 18.3333 3.88669 18.2875 3.80419 18.1958C3.62085 18.0217 3.62085 17.7283 3.80419 17.5542L4.85835 16.5L5.50002 17.1417L4.44585 18.1958Z" fill="black"/>
<path d="M0.916667 10.5417V11.4583H0.458333C0.201667 11.4583 0 11.2567 0 11C0 10.7434 0.201667 10.5417 0.458333 10.5417H0.916667Z" fill="black"/>
<path d="M0 2.29167C0 1.02667 1.02667 0 2.29167 0H11C10.7433 0 10.5417 0.201667 10.5417 0.458333V0.916667H2.29167C1.53083 0.916667 0.916667 1.53083 0.916667 2.29167V10.5417H0.458333C0.201667 10.5417 0 10.7433 0 11V2.29167Z" fill="black"/>
<path d="M0.916667 19.7083C0.916667 20.4692 1.53083 21.0833 2.29167 21.0833H10.5417V21.5417C10.5417 21.7983 10.7433 22 11 22H2.29167C1.02667 22 0 20.9733 0 19.7083V11C0 11.2567 0.201667 11.4583 0.458333 11.4583H0.916667V19.7083Z" fill="black"/>
</svg>
