<svg width="22" height="22" viewBox="0 0 22 22" fill="none" xmlns="http://www.w3.org/2000/svg">
<g clip-path="url(#clip0)">
<path d="M21.9248 16.9639C21.7628 16.1046 21.3448 15.3269 20.7162 14.7137C19.7168 13.7401 18.2985 13.3276 16.9356 13.5936L13.1262 9.78413L18.2817 4.62818L18.8768 5.22325C19.1544 5.50083 19.6149 5.46817 19.85 5.15149L21.8715 2.42955C22.0623 2.17303 22.0361 1.81557 21.8101 1.58956L20.409 0.188432C20.1829 -0.0375835 19.8255 -0.0637944 19.569 0.126987L16.8471 2.14858C16.5308 2.38362 16.4977 2.8442 16.7753 3.12178L17.3704 3.71685L12.2144 8.87242L8.4089 5.06685C8.68175 3.68549 8.25292 2.25037 7.24582 1.2428C6.6327 0.629678 5.85931 0.224053 5.00943 0.0689361C4.17974 -0.0823139 3.33373 0.0135064 2.56206 0.346514C2.14487 0.526553 2.0396 1.07221 2.36139 1.39405L4.35415 3.38642L3.38658 4.35404L1.39425 2.36166C1.07241 2.0394 0.526755 2.14467 0.346716 2.5619C0.0102702 3.34217 -0.084218 4.1972 0.073864 5.03462C0.235856 5.89395 0.653899 6.67207 1.28249 7.28481C2.28147 8.25844 3.70021 8.67132 5.0631 8.40496L7.28746 10.6294C7.16801 10.6556 7.05715 10.7149 6.96906 10.803L0.188634 17.5835C0.0678914 17.7042 7.13335e-07 17.8684 7.13335e-07 18.0389V19.4401C7.13335e-07 19.6111 0.0678914 19.7748 0.188634 19.8955L2.10319 21.8101C2.22393 21.9309 2.38765 21.9988 2.55862 21.9988H3.95979C4.13037 21.9988 4.29451 21.9309 4.41521 21.8101L11.1957 15.0295C11.2838 14.9415 11.3431 14.8306 11.3693 14.7111L13.5898 16.9321C13.317 18.313 13.7458 19.7485 14.7529 20.7557C15.366 21.3688 16.1394 21.7749 16.9893 21.9295C17.8018 22.0778 18.6495 21.9914 19.4367 21.652C19.8547 21.4715 19.9583 20.9258 19.6373 20.6044L17.6446 18.6121L18.6122 17.6444L20.6045 19.6368C20.9259 19.9582 21.4716 19.8547 21.652 19.4366C21.9884 18.6564 22.0829 17.8013 21.9248 16.9639ZM19.8912 1.49331L20.5052 2.10772L19.2601 3.78384L18.2147 2.7385L19.8912 1.49331ZM3.69252 20.7097H2.82588L1.28898 19.1728V18.3062L1.80112 17.7936L4.20509 20.1976L3.69252 20.7097ZM10.0958 14.3064L5.11642 19.2858L2.71288 16.8823L7.69184 11.9033H8.56105L9.66612 13.008L10.0962 13.4381L10.0958 14.3064ZM20.7037 17.9135L19.505 16.7147C19.0113 16.221 18.2126 16.221 17.7193 16.7147L16.7147 17.7188C16.2223 18.2112 16.2223 19.0125 16.7147 19.5049L17.9178 20.708C17.0941 20.7549 16.2743 20.4545 15.6642 19.8444C14.8981 19.0779 14.6128 17.9556 14.92 16.9149C14.987 16.6885 14.9247 16.4436 14.7576 16.2769C12.2703 13.7894 5.71918 7.23797 5.71918 7.23797C5.55418 7.0734 5.31102 7.00852 5.08243 7.07512C4.0538 7.3759 2.94229 7.10262 2.18221 6.36145C1.56436 5.7595 1.25284 4.92079 1.29495 4.08548L2.49369 5.28384C2.73217 5.52232 3.04924 5.65376 3.38654 5.65376C3.72385 5.65376 4.04091 5.52227 4.27939 5.28384L5.28395 4.2797C5.52243 4.04122 5.65392 3.72373 5.65392 3.38642C5.65392 3.04912 5.52243 2.73248 5.28395 2.49358L4.08091 1.29049C4.90415 1.2428 5.72438 1.54401 6.3345 2.15412C7.10059 2.92064 7.3859 4.04294 7.07867 5.0836C7.01164 5.31005 7.07395 5.55493 7.2411 5.72165L16.2795 14.7606C16.4462 14.9268 16.6902 14.9891 16.9162 14.9234C17.9449 14.6226 19.0564 14.8959 19.8165 15.6371C20.4343 16.2391 20.7458 17.0778 20.7037 17.9135Z" fill="#f15045"/>
</g>
<defs>
<clipPath id="clip0">
<rect width="22" height="22" fill="white"/>
</clipPath>
</defs>
</svg>
