<svg width="22" height="22" viewBox="0 0 22 22" fill="none" xmlns="http://www.w3.org/2000/svg">
<g clip-path="url(#clip0)">
<path d="M14.5869 11.7174H0.717391C0.32139 11.7174 0 11.396 0 11C0 10.604 0.32139 10.2826 0.717391 10.2826H14.5869C14.9829 10.2826 15.3043 10.604 15.3043 11C15.3043 11.396 14.9829 11.7174 14.5869 11.7174Z" fill="black"/>
<path d="M10.7609 15.5434C10.5771 15.5434 10.3936 15.4737 10.2538 15.3331C9.97358 15.0529 9.97358 14.5985 10.2538 14.3181L13.573 10.9991L10.2538 7.67997C9.97358 7.39974 9.97358 6.94524 10.2538 6.66501C10.5342 6.38478 10.9885 6.38478 11.2688 6.66501L15.0948 10.4912C15.375 10.7714 15.375 11.2258 15.0948 11.506L11.2688 15.332C11.1281 15.4737 10.9446 15.5434 10.7609 15.5434Z" fill="black"/>
<path d="M11.4783 21.5218C7.12509 21.5218 3.28189 18.9029 1.68545 14.849C1.54008 14.4817 1.7217 14.0647 2.09003 13.9193C2.45731 13.7759 2.87538 13.9547 3.02075 14.3249C4.39914 17.8249 7.71918 20.087 11.4783 20.087C16.4885 20.087 20.5653 16.0102 20.5653 11C20.5653 5.98983 16.4885 1.91299 11.4783 1.91299C7.71918 1.91299 4.39914 4.17516 3.02075 7.67507C2.87433 8.04532 2.45731 8.22414 2.09003 8.0807C1.7217 7.93533 1.54008 7.51831 1.68545 7.15103C3.28189 3.09714 7.12509 0.47821 11.4783 0.47821C17.2796 0.47821 22.0001 5.1987 22.0001 11C22.0001 16.8013 17.2796 21.5218 11.4783 21.5218Z" fill="black"/>
</g>
<defs>
<clipPath id="clip0">
<rect width="22" height="22" fill="white"/>
</clipPath>
</defs>
</svg>
